<svg version="1.1" id="Layer_1" xmlns="http://www.w3.org/2000/svg" xmlns:xlink="http://www.w3.org/1999/xlink" x="0px" y="0px"
	 width="100%" viewBox="0 0 1200 1200" enable-background="new 0 0 1200 1200" xml:space="preserve">
<path fill="#000000" opacity="1.000000" stroke="none" 
	d="
M523.000000,1201.000000 
	C348.666656,1201.000000 174.833328,1201.000000 1.000000,1201.000000 
	C1.000000,801.000000 1.000000,401.000000 1.000000,1.000000 
	C401.000000,1.000000 801.000000,1.000000 1201.000000,1.000000 
	C1201.000000,401.000000 1201.000000,801.000000 1201.000000,1201.000000 
	C975.166687,1201.000000 749.333313,1201.000000 523.000000,1201.000000 
M535.381836,331.886566 
	C532.918884,331.257660 530.457947,330.090271 527.992676,330.081177 
	C494.995636,329.959564 461.997772,329.943939 429.000977,330.096405 
	C426.082123,330.109924 422.793640,330.855255 420.321747,332.336731 
	C411.417297,337.673309 409.174438,344.050232 411.708130,355.000366 
	C419.504211,355.000366 427.336151,354.818024 435.146545,355.147278 
	C436.798035,355.216888 438.370667,357.158020 439.979614,358.236877 
	C438.469910,359.822144 437.167999,361.737061 435.372375,362.868713 
	C434.297791,363.545929 432.450745,362.999268 430.950867,362.999451 
	C424.355103,363.000214 417.759338,362.999786 411.308624,362.999786 
	C411.308624,374.353790 411.308624,385.093842 411.308624,396.000214 
	C416.100250,396.000214 420.585663,396.071747 425.067444,395.974335 
	C427.918243,395.912384 430.895538,396.194977 430.843903,399.649475 
	C430.796417,402.826202 428.198486,404.075256 425.035126,404.020264 
	C420.431915,403.940186 415.826263,403.999695 411.278992,403.999695 
	C411.278992,415.292603 411.278992,426.031616 411.278992,437.000275 
	C419.364990,437.000275 427.183807,436.792572 434.975250,437.161774 
	C436.696564,437.243317 438.321075,439.367004 439.990173,440.550354 
	C438.423523,442.031982 437.019897,443.776703 435.224548,444.889343 
	C434.260620,445.486755 432.623688,444.999512 431.290466,444.999573 
	C424.541840,445.000031 417.793213,444.999786 411.365295,444.999786 
	C411.365295,456.135162 411.365295,466.544312 411.365295,477.004028 
	C416.229767,477.004028 420.799957,476.537201 425.197052,477.206940 
	C427.298981,477.527100 429.072479,480.003204 430.994720,481.502838 
	C429.070587,483.000580 427.251587,484.675232 425.171875,485.911163 
	C424.309235,486.423828 422.889191,485.999481 421.722626,485.999634 
	C418.267914,486.000122 414.813202,485.999786 411.212891,485.999786 
	C411.212891,496.823914 411.212891,507.228790 411.212891,518.000244 
	C418.878632,518.000244 426.339539,518.108337 433.794922,517.951721 
	C437.190521,517.880371 439.625244,519.677673 439.784576,522.467102 
	C439.978333,525.858459 436.792267,526.054565 433.977081,526.026123 
	C426.380646,525.949219 418.782928,525.999817 411.299072,525.999817 
	C411.299072,537.334595 411.299072,548.074524 411.299072,559.000793 
	C416.244385,559.000793 420.892853,559.024414 425.540955,558.992371 
	C428.569153,558.971497 430.797241,560.500305 430.850464,563.356506 
	C430.907623,566.423096 428.362915,567.104858 425.561493,567.033386 
	C420.791107,566.911682 416.015320,566.999817 411.269531,566.999817 
	C411.269531,578.273376 411.269531,589.012085 411.269531,600.000305 
	C419.009796,600.000305 426.483521,600.052307 433.955963,599.975647 
	C437.102509,599.943420 439.757019,601.049316 439.844910,604.273010 
	C439.938599,607.709656 437.022522,608.060242 434.146912,608.028381 
	C426.535889,607.944092 418.923370,607.999817 411.239258,607.999817 
	C411.239258,619.211853 411.239258,629.950195 411.239258,641.000183 
	C416.105194,641.000183 420.740051,641.078369 425.370697,640.971985 
	C428.333893,640.903870 430.901581,641.446838 430.930939,644.963867 
	C430.960266,648.479309 428.418274,649.084595 425.444153,649.025269 
	C420.685944,648.930359 415.924469,648.999817 410.999786,648.999817 
	C410.999786,674.597046 411.434143,699.588806 410.856323,724.557068 
	C410.427826,743.073608 427.502441,760.371765 446.373291,760.078918 
	C468.199707,759.740356 490.035400,760.000122 511.867065,760.000122 
	C513.477539,760.000122 515.088013,760.000183 517.000488,760.000183 
	C517.000488,751.888062 516.807983,744.246704 517.157410,736.630249 
	C517.230225,735.042969 519.307373,733.547668 520.460815,732.009888 
	C521.941711,733.267944 523.644287,734.354126 524.809143,735.857056 
	C525.384399,736.599243 524.994019,738.110229 524.995544,739.273438 
	C525.004395,746.059509 524.999817,752.845581 524.999817,759.788879 
	C535.821899,759.788879 546.226990,759.788879 557.000916,759.788879 
	C557.000916,755.460938 556.482117,751.241150 557.202454,747.244690 
	C557.611206,744.976685 559.868835,741.541626 561.613159,741.335510 
	C564.960388,740.940063 566.117065,744.073242 566.026672,747.380310 
	C565.914490,751.489197 565.999756,755.603516 565.999756,759.750977 
	C576.897705,759.750977 587.302917,759.750977 598.000183,759.750977 
	C598.000183,752.871277 597.942383,746.235779 598.025085,739.602051 
	C598.065063,736.391663 598.109619,732.261353 602.219543,732.239746 
	C606.097290,732.219360 607.034729,735.964111 607.001282,739.501648 
	C606.991821,740.501526 606.999878,741.501465 606.999878,742.501404 
	C606.999878,748.266052 606.999817,754.030640 606.999817,759.708435 
	C617.986816,759.708435 628.393311,759.708435 639.001465,759.708435 
	C639.001465,754.938782 638.600586,750.405151 639.194397,746.005859 
	C639.439453,744.189819 641.648865,741.492554 643.265930,741.256165 
	C646.267944,740.817505 647.086914,743.513855 647.025696,746.322510 
	C646.928650,750.770508 646.999756,755.222046 646.999756,759.771362 
	C658.189575,759.771362 668.927734,759.771362 680.000244,759.771362 
	C680.000244,752.418335 679.990723,745.288940 680.004822,738.159485 
	C680.010620,735.241821 680.284485,732.136292 684.050171,732.094971 
	C687.969299,732.051819 688.046631,735.150391 688.020447,738.142212 
	C687.956970,745.395386 687.999817,752.649475 687.999817,759.658813 
	C699.420471,759.658813 710.162170,759.658813 721.000305,759.658813 
	C721.000305,754.825073 720.657043,750.292419 721.171997,745.859436 
	C721.373413,744.125427 723.274719,741.557678 724.801270,741.229797 
	C727.709412,740.605225 729.052307,742.883484 729.015076,745.844788 
	C728.956970,750.458557 728.999695,755.073608 728.999695,759.763367 
	C740.205994,759.763367 750.944092,759.763367 762.000183,759.763367 
	C762.000183,752.399597 762.043640,745.267883 761.979492,738.137085 
	C761.952515,735.143921 762.029724,732.111023 765.955688,732.075439 
	C769.870728,732.039856 770.049011,735.023743 770.021362,738.047058 
	C769.954834,745.308533 769.999817,752.571045 769.999817,759.692383 
	C781.352173,759.692383 792.092407,759.692383 803.000183,759.692383 
	C803.000183,755.068604 803.071899,750.750000 802.975647,746.435120 
	C802.908264,743.412476 803.659241,740.975220 807.155701,741.067566 
	C810.301392,741.150574 811.093994,743.403198 811.027405,746.250122 
	C810.923279,750.704041 810.999756,755.162231 810.999756,760.000183 
	C815.511353,760.000183 819.649292,760.216919 823.755249,759.947083 
	C829.274353,759.584167 834.607605,758.071350 836.938538,752.485413 
	C838.812622,747.994263 840.762573,743.098389 840.822937,738.358459 
	C841.181763,710.198486 841.047729,682.031494 840.955261,653.867249 
	C840.939148,648.960083 840.544434,644.029236 839.952209,639.154541 
	C838.947571,630.885376 832.012146,625.015137 823.574524,625.004150 
	C810.908813,624.987610 798.242981,624.975464 785.577515,625.030090 
	C783.951843,625.037048 782.322876,625.423584 780.703918,625.686218 
	C771.721130,627.143250 762.778442,629.511414 753.751831,629.889038 
	C737.281799,630.577942 720.761292,629.983887 704.264648,630.170593 
	C700.216431,630.216309 696.978638,629.928528 696.795227,625.172607 
	C693.311157,625.172607 690.337158,625.172607 687.108704,625.172607 
	C687.404602,630.271484 683.991760,630.256287 680.467957,630.253906 
	C648.470398,630.232666 616.472717,630.186218 584.475586,630.309143 
	C580.454834,630.324585 577.803589,629.288696 577.442627,624.999817 
	C573.179504,624.999817 569.335754,625.210449 565.522156,624.960388 
	C554.022705,624.206482 545.963684,618.249634 545.972107,605.133911 
	C546.026611,519.640442 546.016479,434.146942 545.971313,348.653503 
	C545.967407,341.301331 542.984619,335.468719 535.381836,331.886566 
M763.324463,407.060394 
	C758.076782,406.040009 752.845154,404.250214 747.578430,404.139740 
	C729.929199,403.769562 712.267334,403.997986 694.610352,403.999481 
	C687.721191,404.000061 685.988220,405.638245 686.020325,412.756836 
	C686.323853,480.164825 686.673584,547.572571 687.010010,614.980408 
	C687.010803,615.146973 687.020691,615.313965 687.012146,615.480042 
	C686.804688,619.497559 688.660156,621.224487 692.714478,621.032349 
	C701.159424,620.632202 709.610535,620.282654 718.062927,620.144714 
	C728.887756,619.968140 739.747375,620.521606 750.535706,619.853027 
	C765.526978,618.924072 779.345581,614.592529 789.600342,602.625671 
	C804.008545,585.812134 807.089050,552.546631 796.958496,532.142029 
	C792.150696,522.458252 785.301636,515.552551 775.747864,510.976227 
	C775.092834,510.662537 774.578857,510.054230 773.515625,509.189575 
	C775.499695,508.279510 776.983154,507.617706 778.450867,506.922668 
	C786.198914,503.253632 792.540466,498.086945 796.126160,490.070007 
	C803.064026,474.558289 804.413696,458.298157 799.388550,442.322479 
	C793.910217,424.906250 782.070923,412.746063 763.324463,407.060394 
M566.998535,524.500000 
	C566.998718,554.148254 566.997803,583.796448 567.000000,613.444702 
	C567.000427,619.395386 569.126099,621.392273 575.093323,620.989624 
	C578.882202,620.734009 582.665710,620.161926 586.452759,620.152039 
	C614.435181,620.078796 642.417786,620.120911 670.400391,620.102783 
	C676.391846,620.098938 676.908081,619.553406 676.945557,613.482910 
	C676.977478,608.319702 676.840454,603.153137 676.976501,597.993225 
	C677.242859,587.893555 677.599854,577.795654 678.014832,567.700867 
	C678.224487,562.600708 675.930420,559.933350 670.821716,560.019165 
	C657.205383,560.247925 643.589661,560.535034 629.976013,560.889038 
	C623.323425,561.062073 622.917847,560.781494 622.916748,554.061523 
	C622.909180,509.589203 622.897400,465.116852 622.951965,420.644623 
	C622.954956,418.204681 623.407288,415.739777 623.877502,413.330811 
	C625.172363,406.697662 623.079590,404.010590 616.390198,404.003265 
	C602.898560,403.988525 589.406982,403.992523 575.915344,404.001373 
	C568.700378,404.006104 566.999939,405.741974 566.999512,413.068695 
	C566.997498,449.879120 566.998535,486.689575 566.998535,524.500000 
M677.500000,891.000000 
	C666.408752,891.000000 655.317566,891.000000 644.390015,891.000000 
	C644.390015,897.751648 644.390015,903.812317 644.390015,909.745728 
	C706.047424,909.745728 767.314575,909.745728 828.697083,909.745728 
	C828.697083,903.431396 828.697083,897.374390 828.697083,891.000000 
	C778.430420,891.000000 728.465210,891.000000 677.500000,891.000000 
M477.500000,891.000000 
	C445.413635,891.000000 413.327271,891.000000 381.387695,891.000000 
	C381.387695,897.746521 381.387695,903.807007 381.387695,909.748413 
	C442.709900,909.748413 503.644104,909.748413 564.700745,909.748413 
	C564.700745,903.436951 564.700745,897.379944 564.700745,891.402283 
	C564.099121,891.225769 563.793396,891.057800 563.487610,891.057495 
	C535.158386,891.030090 506.829193,891.015442 477.500000,891.000000 
M616.245544,889.017029 
	C608.298706,889.017029 600.351868,889.017029 592.304932,889.017029 
	C592.304932,897.238953 592.304932,904.962952 592.304932,912.645508 
	C601.006226,912.645508 609.398254,912.645508 618.382690,912.645508 
	C617.974243,904.555420 617.584717,896.840454 616.245544,889.017029 
z"/>
<path fill="#FFFFFF" opacity="1.000000" stroke="none" 
	d="
M535.774780,331.950073 
	C542.984619,335.468719 545.967407,341.301331 545.971313,348.653503 
	C546.016479,434.146942 546.026611,519.640442 545.972107,605.133911 
	C545.963684,618.249634 554.022705,624.206482 565.522156,624.960388 
	C569.335754,625.210449 573.179504,624.999817 577.442627,624.999817 
	C577.803589,629.288696 580.454834,630.324585 584.475586,630.309143 
	C616.472717,630.186218 648.470398,630.232666 680.467957,630.253906 
	C683.991760,630.256287 687.404602,630.271484 687.108704,625.172607 
	C690.337158,625.172607 693.311157,625.172607 696.795227,625.172607 
	C696.978638,629.928528 700.216431,630.216309 704.264648,630.170593 
	C720.761292,629.983887 737.281799,630.577942 753.751831,629.889038 
	C762.778442,629.511414 771.721130,627.143250 780.703918,625.686218 
	C782.322876,625.423584 783.951843,625.037048 785.577515,625.030090 
	C798.242981,624.975464 810.908813,624.987610 823.574524,625.004150 
	C832.012146,625.015137 838.947571,630.885376 839.952209,639.154541 
	C840.544434,644.029236 840.939148,648.960083 840.955261,653.867249 
	C841.047729,682.031494 841.181763,710.198486 840.822937,738.358459 
	C840.762573,743.098389 838.812622,747.994263 836.938538,752.485413 
	C834.607605,758.071350 829.274353,759.584167 823.755249,759.947083 
	C819.649292,760.216919 815.511353,760.000183 810.999756,760.000183 
	C810.999756,755.162231 810.923279,750.704041 811.027405,746.250122 
	C811.093994,743.403198 810.301392,741.150574 807.155701,741.067566 
	C803.659241,740.975220 802.908264,743.412476 802.975647,746.435120 
	C803.071899,750.750000 803.000183,755.068604 803.000183,759.692383 
	C792.092407,759.692383 781.352173,759.692383 769.999817,759.692383 
	C769.999817,752.571045 769.954834,745.308533 770.021362,738.047058 
	C770.049011,735.023743 769.870728,732.039856 765.955688,732.075439 
	C762.029724,732.111023 761.952515,735.143921 761.979492,738.137085 
	C762.043640,745.267883 762.000183,752.399597 762.000183,759.763367 
	C750.944092,759.763367 740.205994,759.763367 728.999695,759.763367 
	C728.999695,755.073608 728.956970,750.458557 729.015076,745.844788 
	C729.052307,742.883484 727.709412,740.605225 724.801270,741.229797 
	C723.274719,741.557678 721.373413,744.125427 721.171997,745.859436 
	C720.657043,750.292419 721.000305,754.825073 721.000305,759.658813 
	C710.162170,759.658813 699.420471,759.658813 687.999817,759.658813 
	C687.999817,752.649475 687.956970,745.395386 688.020447,738.142212 
	C688.046631,735.150391 687.969299,732.051819 684.050171,732.094971 
	C680.284485,732.136292 680.010620,735.241821 680.004822,738.159485 
	C679.990723,745.288940 680.000244,752.418335 680.000244,759.771362 
	C668.927734,759.771362 658.189575,759.771362 646.999756,759.771362 
	C646.999756,755.222046 646.928650,750.770508 647.025696,746.322510 
	C647.086914,743.513855 646.267944,740.817505 643.265930,741.256165 
	C641.648865,741.492554 639.439453,744.189819 639.194397,746.005859 
	C638.600586,750.405151 639.001465,754.938782 639.001465,759.708435 
	C628.393311,759.708435 617.986816,759.708435 606.999817,759.708435 
	C606.999817,754.030640 606.999878,748.266052 606.999878,742.501404 
	C606.999878,741.501465 606.991821,740.501526 607.001282,739.501648 
	C607.034729,735.964111 606.097290,732.219360 602.219543,732.239746 
	C598.109619,732.261353 598.065063,736.391663 598.025085,739.602051 
	C597.942383,746.235779 598.000183,752.871277 598.000183,759.750977 
	C587.302917,759.750977 576.897705,759.750977 565.999756,759.750977 
	C565.999756,755.603516 565.914490,751.489197 566.026672,747.380310 
	C566.117065,744.073242 564.960388,740.940063 561.613159,741.335510 
	C559.868835,741.541626 557.611206,744.976685 557.202454,747.244690 
	C556.482117,751.241150 557.000916,755.460938 557.000916,759.788879 
	C546.226990,759.788879 535.821899,759.788879 524.999817,759.788879 
	C524.999817,752.845581 525.004395,746.059509 524.995544,739.273438 
	C524.994019,738.110229 525.384399,736.599243 524.809143,735.857056 
	C523.644287,734.354126 521.941711,733.267944 520.460815,732.009888 
	C519.307373,733.547668 517.230225,735.042969 517.157410,736.630249 
	C516.807983,744.246704 517.000488,751.888062 517.000488,760.000183 
	C515.088013,760.000183 513.477539,760.000122 511.867065,760.000122 
	C490.035400,760.000122 468.199707,759.740356 446.373291,760.078918 
	C427.502441,760.371765 410.427826,743.073608 410.856323,724.557068 
	C411.434143,699.588806 410.999786,674.597046 410.999786,648.999817 
	C415.924469,648.999817 420.685944,648.930359 425.444153,649.025269 
	C428.418274,649.084595 430.960266,648.479309 430.930939,644.963867 
	C430.901581,641.446838 428.333893,640.903870 425.370697,640.971985 
	C420.740051,641.078369 416.105194,641.000183 411.239258,641.000183 
	C411.239258,629.950195 411.239258,619.211853 411.239258,607.999817 
	C418.923370,607.999817 426.535889,607.944092 434.146912,608.028381 
	C437.022522,608.060242 439.938599,607.709656 439.844910,604.273010 
	C439.757019,601.049316 437.102509,599.943420 433.955963,599.975647 
	C426.483521,600.052307 419.009796,600.000305 411.269531,600.000305 
	C411.269531,589.012085 411.269531,578.273376 411.269531,566.999817 
	C416.015320,566.999817 420.791107,566.911682 425.561493,567.033386 
	C428.362915,567.104858 430.907623,566.423096 430.850464,563.356506 
	C430.797241,560.500305 428.569153,558.971497 425.540955,558.992371 
	C420.892853,559.024414 416.244385,559.000793 411.299072,559.000793 
	C411.299072,548.074524 411.299072,537.334595 411.299072,525.999817 
	C418.782928,525.999817 426.380646,525.949219 433.977081,526.026123 
	C436.792267,526.054565 439.978333,525.858459 439.784576,522.467102 
	C439.625244,519.677673 437.190521,517.880371 433.794922,517.951721 
	C426.339539,518.108337 418.878632,518.000244 411.212891,518.000244 
	C411.212891,507.228790 411.212891,496.823914 411.212891,485.999786 
	C414.813202,485.999786 418.267914,486.000122 421.722626,485.999634 
	C422.889191,485.999481 424.309235,486.423828 425.171875,485.911163 
	C427.251587,484.675232 429.070587,483.000580 430.994720,481.502808 
	C429.072479,480.003204 427.298981,477.527100 425.197052,477.206940 
	C420.799957,476.537201 416.229767,477.004028 411.365295,477.004028 
	C411.365295,466.544312 411.365295,456.135162 411.365295,444.999786 
	C417.793213,444.999786 424.541840,445.000031 431.290466,444.999573 
	C432.623688,444.999512 434.260620,445.486755 435.224548,444.889343 
	C437.019897,443.776703 438.423523,442.031982 439.990173,440.550354 
	C438.321075,439.367004 436.696564,437.243317 434.975250,437.161774 
	C427.183807,436.792572 419.364990,437.000275 411.278992,437.000275 
	C411.278992,426.031616 411.278992,415.292603 411.278992,403.999695 
	C415.826263,403.999695 420.431915,403.940186 425.035126,404.020264 
	C428.198486,404.075256 430.796417,402.826202 430.843903,399.649475 
	C430.895538,396.194977 427.918243,395.912384 425.067444,395.974335 
	C420.585663,396.071747 416.100250,396.000214 411.308624,396.000214 
	C411.308624,385.093842 411.308624,374.353790 411.308624,362.999786 
	C417.759338,362.999786 424.355103,363.000214 430.950867,362.999451 
	C432.450745,362.999268 434.297791,363.545929 435.372375,362.868713 
	C437.167999,361.737061 438.469910,359.822144 439.979614,358.236877 
	C438.370667,357.158020 436.798035,355.216888 435.146545,355.147278 
	C427.336151,354.818024 419.504211,355.000366 411.708130,355.000366 
	C409.174438,344.050232 411.417297,337.673309 420.321747,332.336731 
	C422.793640,330.855255 426.082123,330.109924 429.000977,330.096405 
	C461.997772,329.943939 494.995636,329.959564 527.992676,330.081177 
	C530.457947,330.090271 532.918884,331.257660 535.774780,331.950073 
M477.635345,701.107910 
	C475.494965,698.642578 473.445526,696.090637 471.196533,693.728699 
	C465.356110,687.595154 453.148712,685.323425 444.198486,689.233276 
	C431.447723,694.803284 424.299713,710.579102 429.915558,723.479736 
	C433.970215,732.794067 441.031403,738.327393 450.538727,739.792114 
	C460.398132,741.311096 468.906128,737.667175 475.181976,729.441345 
	C481.814667,720.747864 482.407654,711.562866 477.635345,701.107910 
z"/>
<path fill="#2CDF98" opacity="1.000000" stroke="none" 
	d="
M763.667969,407.286194 
	C782.070923,412.746063 793.910217,424.906250 799.388550,442.322479 
	C804.413696,458.298157 803.064026,474.558289 796.126160,490.070007 
	C792.540466,498.086945 786.198914,503.253632 778.450867,506.922668 
	C776.983154,507.617706 775.499695,508.279510 773.515625,509.189575 
	C774.578857,510.054230 775.092834,510.662537 775.747864,510.976227 
	C785.301636,515.552551 792.150696,522.458252 796.958496,532.142029 
	C807.089050,552.546631 804.008545,585.812134 789.600342,602.625671 
	C779.345581,614.592529 765.526978,618.924072 750.535706,619.853027 
	C739.747375,620.521606 728.887756,619.968140 718.062927,620.144714 
	C709.610535,620.282654 701.159424,620.632202 692.714478,621.032349 
	C688.660156,621.224487 686.804688,619.497559 687.012146,615.480042 
	C687.020691,615.313965 687.010803,615.146973 687.010010,614.980408 
	C686.673584,547.572571 686.323853,480.164825 686.020325,412.756836 
	C685.988220,405.638245 687.721191,404.000061 694.610352,403.999481 
	C712.267334,403.997986 729.929199,403.769562 747.578430,404.139740 
	C752.845154,404.250214 758.076782,406.040009 763.667969,407.286194 
M738.545105,575.232971 
	C740.050964,575.752380 741.702454,576.951172 743.035767,576.665466 
	C747.267090,575.758728 748.711182,572.341797 748.774109,568.427429 
	C748.931396,558.643799 748.955750,548.856934 748.900574,539.072205 
	C748.892578,537.653015 748.599731,535.642029 747.663269,534.941772 
	C745.547729,533.359863 742.947266,532.426392 740.544067,531.229187 
	C739.762329,533.204041 738.331360,535.170166 738.304565,537.155151 
	C738.137207,549.591003 738.282959,562.031006 738.545105,575.232971 
M740.666443,487.643890 
	C746.828979,486.362061 748.357483,484.681244 748.556091,478.218079 
	C748.780640,470.910492 748.944641,463.591614 748.764954,456.286774 
	C748.711670,454.122772 747.941528,451.485687 746.525269,449.985413 
	C745.135437,448.513092 742.477295,447.598602 740.434998,447.694855 
	C739.612183,447.733582 738.351440,451.097809 738.309448,452.971405 
	C738.093445,462.608734 738.119446,472.255035 738.288208,481.894226 
	C738.319885,483.706238 739.383179,485.500214 740.666443,487.643890 
z"/>
<path fill="#2CDF98" opacity="1.000000" stroke="none" 
	d="
M566.998535,524.000000 
	C566.998535,486.689575 566.997498,449.879120 566.999512,413.068695 
	C566.999939,405.741974 568.700378,404.006104 575.915344,404.001373 
	C589.406982,403.992523 602.898560,403.988525 616.390198,404.003265 
	C623.079590,404.010590 625.172363,406.697662 623.877502,413.330811 
	C623.407288,415.739777 622.954956,418.204681 622.951965,420.644623 
	C622.897400,465.116852 622.909180,509.589203 622.916748,554.061523 
	C622.917847,560.781494 623.323425,561.062073 629.976013,560.889038 
	C643.589661,560.535034 657.205383,560.247925 670.821716,560.019165 
	C675.930420,559.933350 678.224487,562.600708 678.014832,567.700867 
	C677.599854,577.795654 677.242859,587.893555 676.976501,597.993225 
	C676.840454,603.153137 676.977478,608.319702 676.945557,613.482910 
	C676.908081,619.553406 676.391846,620.098938 670.400391,620.102783 
	C642.417786,620.120911 614.435181,620.078796 586.452759,620.152039 
	C582.665710,620.161926 578.882202,620.734009 575.093323,620.989624 
	C569.126099,621.392273 567.000427,619.395386 567.000000,613.444702 
	C566.997803,583.796448 566.998718,554.148254 566.998535,524.000000 
z"/>
<path fill="#2CE098" opacity="1.000000" stroke="none" 
	d="
M678.000000,891.000000 
	C728.465210,891.000000 778.430420,891.000000 828.697083,891.000000 
	C828.697083,897.374390 828.697083,903.431396 828.697083,909.745728 
	C767.314575,909.745728 706.047424,909.745728 644.390015,909.745728 
	C644.390015,903.812317 644.390015,897.751648 644.390015,891.000000 
	C655.317566,891.000000 666.408752,891.000000 678.000000,891.000000 
z"/>
<path fill="#2CE098" opacity="1.000000" stroke="none" 
	d="
M478.000000,891.000000 
	C506.829193,891.015442 535.158386,891.030090 563.487610,891.057495 
	C563.793396,891.057800 564.099121,891.225769 564.700745,891.402283 
	C564.700745,897.379944 564.700745,903.436951 564.700745,909.748413 
	C503.644104,909.748413 442.709900,909.748413 381.387695,909.748413 
	C381.387695,903.807007 381.387695,897.746521 381.387695,891.000000 
	C413.327271,891.000000 445.413635,891.000000 478.000000,891.000000 
z"/>
<path fill="#2CE098" opacity="1.000000" stroke="none" 
	d="
M616.720337,889.071289 
	C617.584717,896.840454 617.974243,904.555420 618.382690,912.645508 
	C609.398254,912.645508 601.006226,912.645508 592.304932,912.645508 
	C592.304932,904.962952 592.304932,897.238953 592.304932,889.017029 
	C600.351868,889.017029 608.298706,889.017029 616.720337,889.071289 
z"/>
<path fill="#000000" opacity="1.000000" stroke="none" 
	d="
M477.809113,701.458618 
	C482.407654,711.562866 481.814667,720.747864 475.181976,729.441345 
	C468.906128,737.667175 460.398132,741.311096 450.538727,739.792114 
	C441.031403,738.327393 433.970215,732.794067 429.915558,723.479736 
	C424.299713,710.579102 431.447723,694.803284 444.198486,689.233276 
	C453.148712,685.323425 465.356110,687.595154 471.196533,693.728699 
	C473.445526,696.090637 475.494965,698.642578 477.809113,701.458618 
M437.015717,706.980103 
	C434.297089,716.373535 437.002228,724.123779 444.803955,729.293884 
	C450.521790,733.083069 459.359833,732.978577 464.402802,729.062073 
	C471.445465,723.592712 474.131134,716.160950 472.076721,709.034973 
	C469.688660,700.751831 463.935730,696.041748 455.869171,695.182251 
	C447.446381,694.284790 441.618408,699.397095 437.015717,706.980103 
z"/>
<path fill="#030E0A" opacity="1.000000" stroke="none" 
	d="
M738.435059,574.851318 
	C738.282959,562.031006 738.137207,549.591003 738.304565,537.155151 
	C738.331360,535.170166 739.762329,533.204041 740.544067,531.229187 
	C742.947266,532.426392 745.547729,533.359863 747.663269,534.941772 
	C748.599731,535.642029 748.892578,537.653015 748.900574,539.072205 
	C748.955750,548.856934 748.931396,558.643799 748.774109,568.427429 
	C748.711182,572.341797 747.267090,575.758728 743.035767,576.665466 
	C741.702454,576.951172 740.050964,575.752380 738.435059,574.851318 
z"/>
<path fill="#020B08" opacity="1.000000" stroke="none" 
	d="
M740.318420,487.473206 
	C739.383179,485.500214 738.319885,483.706238 738.288208,481.894226 
	C738.119446,472.255035 738.093445,462.608734 738.309448,452.971405 
	C738.351440,451.097809 739.612183,447.733582 740.434998,447.694855 
	C742.477295,447.598602 745.135437,448.513092 746.525269,449.985413 
	C747.941528,451.485687 748.711670,454.122772 748.764954,456.286774 
	C748.944641,463.591614 748.780640,470.910492 748.556091,478.218079 
	C748.357483,484.681244 746.828979,486.362061 740.318420,487.473206 
z"/>
<path fill="#FFFFFF" opacity="1.000000" stroke="none" 
	d="
M437.138000,706.595093 
	C441.618408,699.397095 447.446381,694.284790 455.869171,695.182251 
	C463.935730,696.041748 469.688660,700.751831 472.076721,709.034973 
	C474.131134,716.160950 471.445465,723.592712 464.402802,729.062073 
	C459.359833,732.978577 450.521790,733.083069 444.803955,729.293884 
	C437.002228,724.123779 434.297089,716.373535 437.138000,706.595093 
z"/>
</svg>